# AST/ASF file generated using VICON BodyLanguage
# -----------------------------------------------
:version 1.10
:name VICON
:units
  mass 1.0
  length 0.45
  angle deg
:documentation
   .ast/.asf automatically generated from VICON data using
   VICON BodyBuilder and BodyLanguage model FoxedUp or BRILLIANT.MOD
:root
   order TX TY TZ RX RY RZ
   axis XYZ
   position 0 0 0  
   orientation 0 0 0 
:bonedata
  begin
     id 1 
     name lhipjoint
     direction 0.690799 -0.707083 0.151096 
     length 2.54797 
     axis 0 0 0  XYZ
  end
  begin
     id 2 
     name lfemur
     direction 0.34202 -0.939693 0  
     length 7.21646  
     axis 0 0 20  XYZ
    dof rx ry rz
    limits (-160.0 20.0)
           (-70.0 70.0)
           (-60.0 70.0)
  end
  begin
     id 3 
     name ltibia
     direction 0.34202 -0.939693 0   
     length 8.16759   
     axis 0 0 20   XYZ
    dof rx
    limits (-10.0 170.0)
  end
  begin
     id 4 
     name lfoot
     direction 0.0487203 -0.133858 0.989802   
     length 1.93375   
     axis -90 7.62852e-016 20   XYZ
    dof rx rz
    limits (-45.0 90.0)
           (-70.0 20.0)
  end
  begin
     id 5 
     name ltoes
     direction 1.53453e-011 -4.21783e-011 1   
     length 0.979747   
     axis -90 7.62852e-016 20   XYZ
    dof rx
    limits (-90.0 20.0)
  end
  begin
     id 6 
     name rhipjoint
     direction -0.694693 -0.703425 0.150315   
     length 2.56122  
     axis 0 0 0  XYZ 
  end
  begin
     id 7 
     name rfemur
     direction -0.34202 -0.939693 0   
     length 7.36786   
     axis 0 0 -20   XYZ
    dof rx ry rz
    limits (-160.0 20.0)
           (-70.0 70.0)
           (-70.0 60.0)
  end
  begin
     id 8 
     name rtibia
     direction -0.34202 -0.939693 0   
     length 8.07288   
     axis 0 0 -20   XYZ
    dof rx
    limits (-10.0 170.0)
 end
 begin
     id 9 
     name rfoot
     direction -0.0428397 -0.117701 0.992125   
     length 1.88295  
     axis -90 -7.62852e-016 -20   XYZ
    dof rx rz
    limits (-45.0 90.0)
           (-20.0 70.0)
  end
  begin
     id 10 
     name rtoes
     direction -1.53456e-011 -4.2187e-011 1   
     length 0.955578   
     axis -90 -7.62852e-016 -20   XYZ
    dof rx
    limits (-90.0 20.0)
  end
  begin
     id 11 
     name lowerback
     direction 0.0288145 0.999398 -0.0193241   
     length 1.92149   
     axis 0 0 0   XYZ
    dof rx ry rz
    limits (-20.0 45.0)
           (-30.0 30.0)
           (-30.0 30.0)
  end
  begin
     id 12 
     name upperback
     direction 0.0233784 0.998099 0.0570278   
     length 1.90435   
     axis 0 0 0   XYZ
    dof rx ry rz
    limits (-20.0 45.0)
           (-30.0 30.0)
           (-30.0 30.0)
  end
  begin
     id 13 
     name thorax
     direction 0.0096694 0.997833 0.0650817   
     length 1.9111   
     axis 0 0 0   XYZ
    dof rx ry rz
    limits (-20.0 45.0)
           (-30.0 30.0)
           (-30.0 30.0)
  end
  begin
     id 14 
     name lowerneck
     direction 0.00516803 0.999916 0.0118722   
     length 1.74664   
     axis 0 0 0   XYZ
    dof rx ry rz
    limits (-20.0 45.0)
           (-30.0 30.0)
           (-30.0 30.0)
  end
  begin
     id 15 
     name upperneck
     direction -0.0510851 0.996117 -0.071696   
     length 1.68498   
     axis 0 0 0   XYZ
    dof rx ry rz
    limits (-20.0 45.0)
           (-30.0 30.0)
           (-30.0 30.0)
  end
  begin
     id 16
     name head
     direction -0.019188 0.999436 -0.0275702  
     length 1.83483  
     axis 0 0 0   XYZ
    dof rx ry rz
    limits (-20.0 45.0)
           (-30.0 30.0)
           (-30.0 30.0)
  end
  begin
     id 17 
     name lclavicle
     direction 0.967006 0.248456 -0.0562957  
     length 3.39395  
     axis 0 0 0   XYZ
    dof ry rz
    limits (-20.0 10.0)
           (0.0 20.0)
  end
  begin
     id 18 
     name lhumerus
     direction 1 -4.48962e-011 -5.62711e-019   
     length 5.24318   
     axis 180 -30 -90   XYZ
    dof rx ry rz
    limits (-60.0 90.0)
           (-90.0 90.0)
           (-90.0 90.0)
  end
  begin
     id 19
     name lradius
     direction 1 -4.48966e-011 7.90625e-027   
     length 2.98999   
     axis 180 -30 -90   XYZ
    dof rx
    limits (-10.0 170.0)
  end
  begin
     id 20
     name lwrist
     direction 1 -4.48959e-011 1.61068e-026   
     length 1.49499   
     axis -9.31229e-015 90 90   XYZ
    dof ry
    limits (-180.0 0.0)
 end
  begin
     id 21 
     name lhand
     direction 1 -4.49017e-011 3.22136e-026   
     length 0.726745   
     axis -2.0555e-014 90 90   XYZ
    dof rx rz
    limits (-90.0 90.0)
           (-45.0 45.0)
  end
  begin
     id 22 
     name lfingers
     direction 1 -4.4898e-011 6.44272e-026   
     length 0.58592   
     axis -4.11101e-014 90 90   XYZ
    dof rx
    limits (0.0 90.0)
  end
  begin
     id 23
     name lthumb
     direction 0.707107 -6.34922e-011 0.707107   
     length 0.841268   
     axis -90 45 2.85299e-015   XYZ
    dof rx rz
    limits (-45.0 45.0)
           (-45.0 45.0)
  end
  begin
     id 24 
     name rclavicle
     direction -0.972232 0.230238 0.0419005   
     length 3.40416  
     axis 0 0 0   XYZ 
    dof ry rz
    limits (-10.0 20.0)
           (-20.0 0.0)
  end
  begin
     id 25 
     name rhumerus
     direction -1 -4.48976e-011 2.48487e-027  
     length 5.37045   
     axis 180 30 90   XYZ
    dof rx ry rz
    limits (-90.0 60.0)
           (-90.0 90.0)
           (-90.0 90.0)
  end
  begin
     id 26 
     name rradius
     direction -1 -4.48942e-011 7.87951e-027   
     length 2.92792   
     axis 180 30 90   XYZ
    dof rx
    limits (-10.0 170.0)
  end
  begin
     id 27 
     name rwrist
     direction -1 -4.48969e-011 1.61068e-026   
     length 1.46396   
     axis -9.31229e-015 -90 -90   XYZ
    dof ry
    limits (-180.0 0.0)
  end
  begin
     id 28
     name rhand
     direction -1 -4.49043e-011 3.22136e-026   
     length 0.784497   
     axis -2.0555e-014 -90 -90   XYZ
    dof rx rz
    limits (-90.0 90.0)
           (-45.0 45.0)
  end
  begin
     id 29
     name rfingers
     direction -1 -4.48823e-011 6.44272e-026   
     length 0.632482   
     axis -4.11101e-014 -90 -90   XYZ
    dof rx
    limits (0.0 90.0)
  end
  begin
     id 30
     name rthumb
     direction -0.707107 -6.34923e-011 0.707107   
     length 0.908121   
     axis -90 -45 -2.85299e-015   XYZ
    dof rx rz
    limits (-45.0 45.0)
           (-45.0 45.0)
  end
:hierarchy
  begin
    root lhipjoint rhipjoint lowerback
    lhipjoint lfemur
    lfemur ltibia
    ltibia lfoot
    lfoot ltoes
    rhipjoint rfemur
    rfemur rtibia
    rtibia rfoot
    rfoot rtoes
    lowerback upperback
    upperback thorax
    thorax lowerneck lclavicle rclavicle
    lowerneck upperneck
    upperneck head
    lclavicle lhumerus
    lhumerus lradius
    lradius lwrist
    lwrist lhand lthumb
    lhand lfingers
    rclavicle rhumerus
    rhumerus rradius
    rradius rwrist
    rwrist rhand rthumb
    rhand rfingers
  end

#!OML:ASF E:\Style6\Style6.ASF
:FULLY-SPECIFIED
:DEGREES
973
root 0.242452 14.9028 -1.87379 18.7239 19.3446 9.1592
lowerback 21.8545 2.5637 11.6552
upperback 3.52778 6.92702 8.70482
thorax -8.0755 3.11942 1.07497
lowerneck -12.6528 1.5742 2.47085
upperneck 10.9769 4.77845 -20.864
head 6.07937 1.04343 -6.72476
rclavicle -4.13472e-014 -8.26944e-014
rhumerus 15.6384 31.6491 -66.1594
rradius 61.3369
rwrist -49.3707
rhand -8.77145 -3.11533
rfingers 7.12502
rthumb 17.1664 -32.377
lclavicle -4.13472e-014 -8.26944e-014
lhumerus -30.6999 -9.99568 59.552
lradius 115.944
lwrist 8.27059
lhand -9.92244 16.5028
lfingers 7.12502
lthumb 16.0583 45.8574
rfemur -69.1255 -35.1843 20.6076
rtibia 80.4747
rfoot -22.0729 4.3919
rtoes -12.2907
lfemur -65.5632 -5.36915 -28.0669
ltibia 72.1462
lfoot -17.5566 -10.1777
ltoes -8.49519
974
root 0.234843 14.923 -1.86768 18.641 19.4311 9.03056
lowerback 21.7784 2.54801 11.627
upperback 3.53429 6.88656 8.70246
thorax -8.03238 3.10423 1.1024
lowerneck -12.6013 1.74071 2.47684
upperneck 11.2186 5.04234 -20.7773
head 6.17588 1.1656 -6.67732
rclavicle 2.54444e-014 9.85972e-014
rhumerus 15.7257 32.2649 -65.8441
rradius 62.299
rwrist -49.8881
rhand -8.76936 -3.03606
rfingers 7.12502
rthumb 17.1684 -32.2976
lclavicle 2.54444e-014 9.85972e-014
lhumerus -30.5004 -10.0948 59.5666
lradius 115.752
lwrist 8.40654
lhand -9.89924 16.4264
lfingers 7.12502
lthumb 16.0807 45.7792
rfemur -68.8624 -35.1171 20.708
rtibia 80.252
rfoot -22.0324 4.32314
rtoes -11.9546
lfemur -65.3864 -5.31077 -27.9096
ltibia 71.9496
lfoot -17.5269 -10.2732
ltoes -8.48436
975
root 0.229855 14.9443 -1.86125 18.5938 19.5545 8.88816
lowerback 21.6317 2.53422 11.6685
upperback 3.50951 6.85551 8.69186
thorax -7.97663 3.09138 1.08406
lowerneck -12.4845 1.90146 2.59022
upperneck 11.4712 5.29449 -20.7971
head 6.26838 1.28327 -6.68665
rclavicle 3.18055e-015 -3.18055e-015
rhumerus 15.6723 32.7835 -65.6392
rradius 63.2826
rwrist -50.4731
rhand -8.80938 -3.02314
rfingers 7.12502
rthumb 17.1299 -32.288
lclavicle 3.18055e-015 -3.18055e-015
lhumerus -30.3019 -10.3294 59.5879
lradius 115.557
lwrist 8.55179
lhand -9.95065 16.3095
lfingers 7.12502
lthumb 16.0312 45.6662
rfemur -68.64 -35.1013 20.871
rtibia 80.0099
rfoot -22.018 4.12107
rtoes -12.3743
lfemur -65.25 -5.28989 -27.7357
ltibia 71.7597
lfoot -17.4716 -10.4233
ltoes -8.12605
976
root 0.225407 14.9635 -1.85429 18.542 19.6468 8.84059
lowerback 21.5127 2.53259 11.6177
upperback 3.50589 6.8193 8.66504
thorax -7.92071 3.07893 1.09747
lowerneck -12.5794 2.04738 2.5468
upperneck 11.8962 5.574 -20.6815
head 6.44932 1.39306 -6.62467
rclavicle -3.81667e-014 -1.59028e-014
rhumerus 15.7575 33.3557 -65.2987
rradius 64.2504
rwrist -51.2808
rhand -9.11829 -2.86713
rfingers 7.12502
rthumb 16.8326 -32.1576
lclavicle -3.81667e-014 -1.59028e-014
lhumerus -30.0967 -10.5472 59.6606
lradius 115.387
lwrist 8.69864
lhand -9.93245 16.4116
lfingers 7.12502
lthumb 16.0487 45.767
rfemur -68.3801 -35.0936 20.8863
rtibia 79.7797
rfoot -22.0124 4.01841
rtoes -12.7337
lfemur -65.0523 -5.28149 -27.6591
ltibia 71.5599
lfoot -17.3976 -10.5665
ltoes -7.79839
977
root 0.219006 14.9838 -1.84835 18.48 19.7095 8.77818
lowerback 21.4429 2.50817 11.5501
upperback 3.50651 6.75623 8.62205
thorax -7.88758 3.05262 1.10656
lowerneck -12.7017 2.19348 2.4634
upperneck 12.2965 5.84764 -20.5114
head 6.624 1.50133 -6.53588
rclavicle 1.28812e-013 2.22639e-014
rhumerus 15.9713 33.9666 -64.9475
rradius 65.1154
rwrist -51.9934
rhand -9.35464 -2.71953
rfingers 7.12502
rthumb 16.605 -32.0292
lclavicle 1.28812e-013 2.22639e-014
lhumerus -29.8839 -10.6431 59.6928
lradius 115.2
lwrist 8.69657
lhand -9.94278 16.6351
lfingers 7.12502
lthumb 16.0387 45.9912
rfemur -68.1052 -35.0286 20.8886
rtibia 79.5421
rfoot -21.9652 4.00588
rtoes -12.3022
lfemur -64.8561 -5.24032 -27.5653
ltibia 71.3589
lfoot -17.2767 -10.7242
ltoes -6.85925
